<?xml version="1.0" encoding="UTF-8" standalone="no"?>
<svg
   xmlns:dc="http://purl.org/dc/elements/1.1/"
   xmlns:cc="http://creativecommons.org/ns#"
   xmlns:rdf="http://www.w3.org/1999/02/22-rdf-syntax-ns#"
   xmlns:svg="http://www.w3.org/2000/svg"
   xmlns="http://www.w3.org/2000/svg"
   xmlns:sodipodi="http://sodipodi.sourceforge.net/DTD/sodipodi-0.dtd"
   xmlns:inkscape="http://www.inkscape.org/namespaces/inkscape"
   width="207"
   height="190"
   viewBox="4000 3000 207 190"
   id="svg2"
   version="1.1"
   inkscape:version="0.91 r13725"
   sodipodi:docname="PCB_Back.svg">
  <metadata
     id="metadata260">
    <rdf:RDF>
      <cc:Work
         rdf:about="">
        <dc:format>image/svg+xml</dc:format>
        <dc:type
           rdf:resource="http://purl.org/dc/dcmitype/StillImage" />
        <dc:title>KrystaLED PCB Back</dc:title>
      </cc:Work>
    </rdf:RDF>
  </metadata>
  <defs
     id="defs258" />
  <sodipodi:namedview
     pagecolor="#ffffff"
     bordercolor="#666666"
     borderopacity="1"
     objecttolerance="10"
     gridtolerance="10"
     guidetolerance="10"
     inkscape:pageopacity="0"
     inkscape:pageshadow="2"
     inkscape:window-width="1844"
     inkscape:window-height="1130"
     id="namedview256"
     showgrid="false"
     inkscape:zoom="2.4842105"
     inkscape:cx="146.79095"
     inkscape:cy="121.88823"
     inkscape:window-x="0"
     inkscape:window-y="0"
     inkscape:window-maximized="0"
     inkscape:current-layer="svg2" />
  <title
     id="title4">KrystaLED PCB Back</title>
  <style
     type="text/css"
     id="style6">
path, polyline, polygon {stroke-linejoin:round;}
path, polyline, polygon, line {stroke-linecap:round;}
rect, circle, ellipse, polyline, polygon, line, path {shape-rendering:crispEdges;}
*[layerid=&quot;0&quot;] {stroke:#FFFFFF; FILL:#FFFFFF;}*[layerid=&quot;1&quot;] {stroke:#00BE00; fill:#00BE00;}*[layerid=&quot;2&quot;] {stroke:#00BE00; fill:#00BE00;}*[layerid=&quot;3&quot;] {stroke:#FFFFFF; fill:#FFFFFF;}*[layerid=&quot;4&quot;] {stroke:#FFFFFF; fill:#FFFFFF;}*[layerid=&quot;5&quot;] {stroke:#808080; fill:#808080;}*[layerid=&quot;6&quot;] {stroke:#800000; fill:#800000;}*[layerid=&quot;7&quot;] {stroke:#DCAA14; fill:#DCAA14;}*[layerid=&quot;8&quot;] {stroke:#DCAA14; fill:#DCAA14;}*[layerid=&quot;9&quot;] {display:none}*[layerid=&quot;10&quot;] {stroke:#0B3B0B; fill:#0B3B0B;}*[layerid=&quot;11&quot;] {stroke:#C0C0C0; fill:#C0C0C0;}*[layerid=&quot;12&quot;] {stroke:#FFFFFF; fill:#FFFFFF;}*[layerid=&quot;13&quot;] {stroke:#33CC99; fill:#33CC99;}*[layerid=&quot;14&quot;] {stroke:#5555FF; fill:#5555FF;}*[layerid=&quot;15&quot;] {stroke:#F022F0; fill:#F022F0;}*[layerid=&quot;16&quot;] {stroke:#FFFFFF; FILL:#FFFFFF;}*[layerid=&quot;17&quot;] {stroke:#FFFFFF; FILL:#FFFFFF;}*[layerid=&quot;18&quot;] {stroke:#FFFFFF; FILL:#FFFFFF;}*[layerid=&quot;19&quot;] {stroke:#FFFFFF; FILL:#FFFFFF;}*[layerid=&quot;20&quot;] {stroke:#FFFFFF; FILL:#FFFFFF;}*[layerid=&quot;21&quot;] {stroke:#800000; fill:#800000;}*[layerid=&quot;22&quot;] {stroke:#008000; fill:#008000;}*[layerid=&quot;23&quot;] {stroke:#00FF00; fill:#00FF00;}*[layerid=&quot;24&quot;] {stroke:#000080; fill:#000080;}*[fill=&quot;none&quot;] {fill: none;}
*[stroke=&quot;none&quot;] {stroke: none;}
g[c_partid=&quot;part_pad&quot;] &gt; * + circle {fill: #111111;}
g[c_partid=&quot;part_via&quot;] &gt; * + circle {fill: #111111;}
g[c_partid=&quot;part_pad&quot;] &gt; polyline:nth-child(2) {stroke: #111111;}</style>
  <g
     style="pointer-events: none;"
     transform="matrix(-1, 0, 0, 1, 8207, 0)"
     id="g10">
    <path
       d="M4050,3140 4050,3050 4157,3050 4157,3140z"
       layerid="10"
       id="path12" />
    <polyline
       points="4131 3065 4074 3065"
       stroke-width="1.2"
       c_shapetype="line"
       stroke-linecap="round"
       fill="none"
       layerid="2"
       id="polyline14" />
    <polyline
       points="4131 3065 4125.926 3065 4117 3074 4117 3086.3 4116.6 3086.7"
       stroke-width="1.2"
       c_shapetype="line"
       stroke-linecap="round"
       fill="none"
       layerid="2"
       id="polyline16" />
    <polyline
       points="4116.6 3086.7 4116.6 3092.6 4117 3093"
       stroke-width="1.2"
       c_shapetype="line"
       stroke-linecap="round"
       fill="none"
       layerid="2"
       id="polyline18" />
    <polyline
       points="4106 3086 4098.1 3086 4097.4 3086.7"
       stroke-width="1"
       c_shapetype="line"
       stroke-linecap="round"
       fill="none"
       layerid="2"
       id="polyline20" />
    <polyline
       points="4079 3093 4083 3089 4083 3085.73 4083.21 3085.52"
       stroke-width="1"
       c_shapetype="line"
       stroke-linecap="round"
       fill="none"
       layerid="2"
       id="polyline22" />
    <polyline
       points="4070 3106 4070 3062"
       stroke-width="1"
       c_shapetype="line"
       stroke-linecap="round"
       fill="none"
       layerid="2"
       id="polyline24" />
    <path
       d="M4050,3140 4050,3050 4157,3050 4157,3140zM4107.061111111111,3054.0333333333333 4110.033333333334,3054.0333333333333 4110.033333333334,3051.061111111111 4108.061111111111,3051.061111111111 4107.75,3051.1111111111113 4107.472222222223,3051.25 4107.25,3051.472222222222 4107.111111111111,3051.75 4107.061111111111,3052.061111111111zM4102.094444444445,3138.9055555555556 4105.05,3138.9055555555556 4105.05,3134.95 4101.094444444445,3134.95 4101.094444444445,3137.9055555555556 4101.144444444444,3138.2166666666667 4101.283333333334,3138.4944444444445 4101.5055555555555,3138.7166666666667 4101.783333333334,3138.8555555555554zM4118.094444444445,3138.9055555555556 4129.905555555555,3138.9055555555556 4130.216666666666,3138.8555555555554 4130.4944444444445,3138.7166666666667 4130.716666666666,3138.4944444444445 4130.855555555556,3138.2166666666667 4130.905555555555,3137.9055555555556 4130.905555555555,3126.0944444444444 4130.855555555556,3125.7833333333333 4130.716666666666,3125.5055555555555 4130.4944444444445,3125.2833333333333 4130.216666666666,3125.1444444444446 4129.905555555555,3125.0944444444444 4118.094444444445,3125.0944444444444 4117.783333333334,3125.1444444444446 4117.5055555555555,3125.2833333333333 4117.283333333334,3125.5055555555555 4117.144444444444,3125.7833333333333 4117.094444444445,3126.0944444444444 4117.094444444445,3137.9055555555556 4117.144444444444,3138.2166666666667 4117.283333333334,3138.4944444444445 4117.5055555555555,3138.7166666666667 4117.783333333334,3138.8555555555554zM4146.6611111111115,3134.988888888889 4147.3388888888885,3134.988888888889 4148.016666666666,3134.8944444444446 4148.672222222222,3134.711111111111 4149.3,3134.438888888889 4149.883333333333,3134.0833333333335 4150.4111111111115,3133.6555555555556 4150.877777777778,3133.1555555555556 4151.272222222222,3132.6 4151.583333333333,3131.9944444444445 4151.816666666667,3131.35 4151.955555555555,3130.6833333333334 4152,3130 4151.955555555555,3129.3166666666666 4151.816666666667,3128.65 4151.583333333333,3128.0055555555555 4151.272222222222,3127.4 4150.877777777778,3126.8444444444444 4150.4111111111115,3126.3444444444444 4149.883333333333,3125.9166666666665 4149.3,3125.561111111111 4148.672222222222,3125.288888888889 4148.016666666666,3125.1055555555554 4147.3388888888885,3125.011111111111 4146.6611111111115,3125.011111111111 4145.983333333334,3125.1055555555554 4145.327777777778,3125.288888888889 4144.7,3125.561111111111 4144.116666666667,3125.9166666666665 4143.5888888888885,3126.3444444444444 4143.122222222222,3126.8444444444444 4142.727777777778,3127.4 4142.416666666667,3128.0055555555555 4142.183333333333,3128.65 4142.044444444445,3129.3166666666666 4142,3130 4142.044444444445,3130.6833333333334 4142.183333333333,3131.35 4142.416666666667,3131.9944444444445 4142.727777777778,3132.6 4143.122222222222,3133.1555555555556 4143.5888888888885,3133.6555555555556 4144.116666666667,3134.0833333333335 4144.7,3134.438888888889 4145.327777777778,3134.711111111111 4145.983333333334,3134.8944444444446zM4059.661111111111,3134.988888888889 4060.338888888889,3134.988888888889 4061.016666666667,3134.8944444444446 4061.6722222222224,3134.711111111111 4062.3,3134.438888888889 4062.883333333333,3134.0833333333335 4063.411111111111,3133.6555555555556 4063.8777777777777,3133.1555555555556 4064.2722222222224,3132.6 4064.5833333333335,3131.9944444444445 4064.8166666666666,3131.35 4064.9555555555557,3130.6833333333334 4065,3130 4064.9555555555557,3129.3166666666666 4064.8166666666666,3128.65 4064.5833333333335,3128.0055555555555 4064.2722222222224,3127.4 4063.8777777777777,3126.8444444444444 4063.411111111111,3126.3444444444444 4062.883333333333,3125.9166666666665 4062.3,3125.561111111111 4061.6722222222224,3125.288888888889 4061.016666666667,3125.1055555555554 4060.338888888889,3125.011111111111 4059.661111111111,3125.011111111111 4058.983333333333,3125.1055555555554 4058.3277777777776,3125.288888888889 4057.7,3125.561111111111 4057.116666666667,3125.9166666666665 4056.588888888889,3126.3444444444444 4056.1222222222223,3126.8444444444444 4055.7277777777776,3127.4 4055.4166666666665,3128.0055555555555 4055.1833333333334,3128.65 4055.0444444444443,3129.3166666666666 4055,3130 4055.0444444444443,3130.6833333333334 4055.1833333333334,3131.35 4055.4166666666665,3131.9944444444445 4055.7277777777776,3132.6 4056.1222222222223,3133.1555555555556 4056.588888888889,3133.6555555555556 4057.116666666667,3134.0833333333335 4057.7,3134.438888888889 4058.3277777777776,3134.711111111111 4058.983333333333,3134.8944444444446zM4110.95,3129.05 4114.905555555555,3129.05 4114.905555555555,3126.0944444444444 4114.855555555556,3125.7833333333333 4114.716666666666,3125.5055555555555 4114.4944444444445,3125.2833333333333 4114.216666666666,3125.1444444444446 4113.905555555555,3125.0944444444444 4110.95,3125.0944444444444zM4101.094444444445,3129.05 4105.05,3129.05 4105.05,3125.0944444444444 4102.094444444445,3125.0944444444444 4101.783333333334,3125.1444444444446 4101.5055555555555,3125.2833333333333 4101.283333333334,3125.5055555555555 4101.144444444444,3125.7833333333333 4101.094444444445,3126.0944444444444zM4113.966666666666,3054.0333333333333 4116.933333333333,3054.0333333333333 4116.933333333333,3052.061111111111 4116.883333333333,3051.75 4116.7444444444445,3051.472222222222 4116.522222222222,3051.25 4116.2444444444445,3051.1111111111113 4115.933333333333,3051.061111111111 4113.966666666666,3051.061111111111zM4055.261111111111,3103.4333333333334 4062.35,3103.4333333333334 4062.661111111111,3103.383333333333 4062.938888888889,3103.2444444444445 4063.161111111111,3103.0222222222224 4063.3,3102.7444444444445 4063.35,3102.4333333333334 4063.35,3098.5 4063.3,3098.188888888889 4063.161111111111,3097.911111111111 4062.938888888889,3097.688888888889 4062.661111111111,3097.55 4062.35,3097.5 4055.261111111111,3097.5 4054.95,3097.55 4054.6722222222224,3097.688888888889 4054.45,3097.911111111111 4054.311111111111,3098.188888888889 4054.261111111111,3098.5 4054.261111111111,3102.4333333333334 4054.311111111111,3102.7444444444445 4054.45,3103.0222222222224 4054.6722222222224,3103.2444444444445 4054.95,3103.383333333333zM4084.983333333333,3103.4333333333334 4086.7555555555555,3103.4333333333334 4087.0666666666666,3103.383333333333 4087.3444444444444,3103.2444444444445 4087.5666666666666,3103.0222222222224 4087.7055555555557,3102.7444444444445 4087.7555555555555,3102.4333333333334 4087.7555555555555,3101.45 4084.983333333333,3101.45zM4079.6722222222224,3103.4333333333334 4081.45,3103.4333333333334 4081.45,3101.45 4078.6722222222224,3101.45 4078.6722222222224,3102.4333333333334 4078.722222222222,3102.7444444444445 4078.8611111111113,3103.0222222222224 4079.0833333333335,3103.2444444444445 4079.3611111111113,3103.383333333333zM4113.644444444444,3102.266666666667 4119.55,3102.266666666667 4119.861111111111,3102.2166666666667 4120.138888888889,3102.0777777777776 4120.361111111111,3101.8555555555554 4120.5,3101.5777777777776 4120.55,3101.266666666667 4120.55,3097.3277777777776 4120.5,3097.016666666667 4120.361111111111,3096.738888888889 4120.138888888889,3096.516666666667 4119.861111111111,3096.3777777777777 4119.55,3096.3277777777776 4113.644444444444,3096.3277777777776 4113.333333333333,3096.3777777777777 4113.055555555556,3096.516666666667 4112.833333333333,3096.738888888889 4112.694444444444,3097.016666666667 4112.644444444444,3097.3277777777776 4112.644444444444,3101.266666666667 4112.694444444444,3101.5777777777776 4112.833333333333,3101.8555555555554 4113.055555555556,3102.0777777777776 4113.333333333333,3102.2166666666667zM4098.866666666667,3102.266666666667 4100.35,3102.266666666667 4100.6611111111115,3102.2166666666667 4100.938888888889,3102.0777777777776 4101.1611111111115,3101.8555555555554 4101.3,3101.5777777777776 4101.35,3101.266666666667 4101.35,3100.2833333333333 4098.866666666667,3100.2833333333333zM4094.4444444444443,3102.266666666667 4095.9222222222224,3102.266666666667 4095.9222222222224,3100.2833333333333 4093.4444444444443,3100.2833333333333 4093.4444444444443,3101.266666666667 4093.4944444444445,3101.5777777777776 4093.633333333333,3101.8555555555554 4093.8555555555554,3102.0777777777776 4094.133333333333,3102.2166666666667zM4084.983333333333,3099.483333333333 4087.7555555555555,3099.483333333333 4087.7555555555555,3098.5 4087.7055555555557,3098.188888888889 4087.5666666666666,3097.911111111111 4087.3444444444444,3097.688888888889 4087.0666666666666,3097.55 4086.7555555555555,3097.5 4084.983333333333,3097.5zM4078.6722222222224,3099.483333333333 4081.45,3099.483333333333 4081.45,3097.5 4079.6722222222224,3097.5 4079.3611111111113,3097.55 4079.0833333333335,3097.688888888889 4078.8611111111113,3097.911111111111 4078.722222222222,3098.188888888889 4078.6722222222224,3098.5zM4098.866666666667,3098.3166666666666 4101.35,3098.3166666666666 4101.35,3097.3277777777776 4101.3,3097.016666666667 4101.1611111111115,3096.738888888889 4100.938888888889,3096.516666666667 4100.6611111111115,3096.3777777777777 4100.35,3096.3277777777776 4098.866666666667,3096.3277777777776zM4093.4444444444443,3098.3166666666666 4095.9222222222224,3098.3166666666666 4095.9222222222224,3096.3277777777776 4094.4444444444443,3096.3277777777776 4094.133333333333,3096.3777777777777 4093.8555555555554,3096.516666666667 4093.633333333333,3096.738888888889 4093.4944444444445,3097.016666666667 4093.4444444444443,3097.3277777777776zM4078.766666666667,3095.2055555555557 4079.233333333333,3095.2055555555557 4079.6833333333334,3095.1055555555554 4080.1111111111113,3094.9222222222224 4080.483333333333,3094.65 4080.7944444444443,3094.3055555555557 4081.027777777778,3093.9 4081.1666666666665,3093.461111111111 4081.2166666666667,3093 4081.2055555555557,3092.9166666666665 4084.061111111111,3090.061111111111 4084.211111111111,3089.883333333333 4084.338888888889,3089.6833333333334 4084.427777777778,3089.461111111111 4084.483333333333,3089.233333333333 4084.5,3089 4084.5,3088.483333333333 4086.75,3088.483333333333 4087.061111111111,3088.4333333333334 4087.338888888889,3088.2944444444443 4087.561111111111,3088.072222222222 4087.7,3087.7944444444443 4087.75,3087.483333333333 4087.75,3083.5444444444443 4087.7,3083.233333333333 4087.561111111111,3082.9555555555557 4087.338888888889,3082.733333333333 4087.061111111111,3082.5944444444444 4086.75,3082.5444444444443 4079.661111111111,3082.5444444444443 4079.35,3082.5944444444444 4079.072222222222,3082.733333333333 4078.85,3082.9555555555557 4078.711111111111,3083.233333333333 4078.661111111111,3083.5444444444443 4078.661111111111,3087.483333333333 4078.711111111111,3087.7944444444443 4078.85,3088.072222222222 4079.072222222222,3088.2944444444443 4079.35,3088.4333333333334 4079.661111111111,3088.483333333333 4081.3944444444446,3088.483333333333 4079.0833333333335,3090.7944444444443 4078.766666666667,3090.7944444444443 4078.3166666666666,3090.8944444444446 4077.8888888888887,3091.0777777777776 4077.516666666667,3091.35 4077.2055555555557,3091.6944444444443 4076.972222222222,3092.1 4076.8333333333335,3092.538888888889 4076.7833333333333,3093 4076.8333333333335,3093.461111111111 4076.972222222222,3093.9 4077.2055555555557,3094.3055555555557 4077.516666666667,3094.65 4077.8888888888887,3094.9222222222224 4078.3166666666666,3095.1055555555554zM4116.766666666666,3095.2055555555557 4117.233333333334,3095.2055555555557 4117.683333333333,3095.1055555555554 4118.111111111111,3094.9222222222224 4118.483333333334,3094.65 4118.794444444445,3094.3055555555557 4119.027777777777,3093.9 4119.166666666667,3093.461111111111 4119.216666666666,3093 4119.166666666667,3092.538888888889 4119.027777777777,3092.1 4118.794444444445,3091.6944444444443 4118.483333333334,3091.35 4118.2,3091.1444444444446 4118.2,3089.6666666666665 4119.55,3089.6666666666665 4119.861111111111,3089.616666666667 4120.138888888889,3089.4777777777776 4120.361111111111,3089.2555555555555 4120.5,3088.9777777777776 4120.55,3088.6666666666665 4120.55,3084.7277777777776 4120.5,3084.4166666666665 4120.361111111111,3084.1388888888887 4120.138888888889,3083.9166666666665 4119.861111111111,3083.777777777778 4119.55,3083.7277777777776 4118.6,3083.7277777777776 4118.6,3074.661111111111 4126.594444444445,3066.6 4129.472222222223,3066.6 4129.516666666666,3066.65 4129.888888888889,3066.9222222222224 4130.316666666667,3067.1055555555554 4130.766666666666,3067.2055555555557 4131.233333333334,3067.2055555555557 4131.683333333333,3067.1055555555554 4132.111111111111,3066.9222222222224 4132.483333333334,3066.65 4132.794444444445,3066.3055555555557 4133.027777777777,3065.9 4133.166666666667,3065.461111111111 4133.216666666666,3065 4133.166666666667,3064.538888888889 4133.027777777777,3064.1 4132.794444444445,3063.6944444444443 4132.483333333334,3063.35 4132.111111111111,3063.0777777777776 4131.683333333333,3062.8944444444446 4131.233333333334,3062.7944444444443 4130.766666666666,3062.7944444444443 4130.316666666667,3062.8944444444446 4129.888888888889,3063.0777777777776 4129.516666666666,3063.35 4129.472222222223,3063.4 4075.527777777778,3063.4 4075.483333333333,3063.35 4075.1111111111113,3063.0777777777776 4074.6833333333334,3062.8944444444446 4074.233333333333,3062.7944444444443 4073.766666666667,3062.7944444444443 4073.3166666666666,3062.8944444444446 4072.8888888888887,3063.0777777777776 4072.516666666667,3063.35 4072.2055555555557,3063.6944444444443 4071.972222222222,3064.1 4071.8333333333335,3064.538888888889 4071.7833333333333,3065 4071.8333333333335,3065.461111111111 4071.972222222222,3065.9 4072.2055555555557,3066.3055555555557 4072.516666666667,3066.65 4072.8888888888887,3066.9222222222224 4073.3166666666666,3067.1055555555554 4073.766666666667,3067.2055555555557 4074.233333333333,3067.2055555555557 4074.6833333333334,3067.1055555555554 4075.1111111111113,3066.9222222222224 4075.483333333333,3066.65 4075.527777777778,3066.6 4122.077777777778,3066.6 4115.861111111111,3072.8722222222223 4115.7,3073.0666666666666 4115.572222222222,3073.277777777778 4115.477777777778,3073.5055555555555 4115.422222222222,3073.75 4115.4,3074 4115.4,3083.7277777777776 4113.644444444444,3083.7277777777776 4113.333333333333,3083.777777777778 4113.055555555556,3083.9166666666665 4112.833333333333,3084.1388888888887 4112.694444444444,3084.4166666666665 4112.644444444444,3084.7277777777776 4112.644444444444,3088.6666666666665 4112.694444444444,3088.9777777777776 4112.833333333333,3089.2555555555555 4113.055555555556,3089.4777777777776 4113.333333333333,3089.616666666667 4113.644444444444,3089.6666666666665 4115,3089.6666666666665 4115,3092.05 4114.972222222223,3092.1 4114.833333333333,3092.538888888889 4114.783333333334,3093 4114.833333333333,3093.461111111111 4114.972222222223,3093.9 4115.205555555555,3094.3055555555557 4115.516666666666,3094.65 4115.888888888889,3094.9222222222224 4116.316666666667,3095.1055555555554zM4110.95,3138.9055555555556 4113.905555555555,3138.9055555555556 4114.216666666666,3138.8555555555554 4114.4944444444445,3138.7166666666667 4114.716666666666,3138.4944444444445 4114.855555555556,3138.2166666666667 4114.905555555555,3137.9055555555556 4114.905555555555,3134.95 4110.95,3134.95zM4108.061111111111,3060.9333333333334 4110.033333333334,3060.9333333333334 4110.033333333334,3057.9666666666667 4107.061111111111,3057.9666666666667 4107.061111111111,3059.9333333333334 4107.111111111111,3060.2444444444445 4107.25,3060.5222222222224 4107.472222222223,3060.7444444444445 4107.75,3060.883333333333zM4113.966666666666,3060.9333333333334 4115.933333333333,3060.9333333333334 4116.2444444444445,3060.883333333333 4116.522222222222,3060.7444444444445 4116.7444444444445,3060.5222222222224 4116.883333333333,3060.2444444444445 4116.933333333333,3059.9333333333334 4116.933333333333,3057.9666666666667 4113.966666666666,3057.9666666666667zM4055.2555555555555,3088.4777777777776 4062.3444444444444,3088.4777777777776 4062.6555555555556,3088.427777777778 4062.9333333333334,3088.288888888889 4063.1555555555556,3088.0666666666666 4063.2944444444443,3087.788888888889 4063.3444444444444,3087.4777777777776 4063.3444444444444,3083.538888888889 4063.2944444444443,3083.2277777777776 4063.1555555555556,3082.95 4062.9333333333334,3082.7277777777776 4062.6555555555556,3082.588888888889 4062.3444444444444,3082.538888888889 4055.2555555555555,3082.538888888889 4054.9444444444443,3082.588888888889 4054.6666666666665,3082.7277777777776 4054.4444444444443,3082.95 4054.3055555555557,3083.2277777777776 4054.2555555555555,3083.538888888889 4054.2555555555555,3087.4777777777776 4054.3055555555557,3087.788888888889 4054.4444444444443,3088.0666666666666 4054.6666666666665,3088.288888888889 4054.9444444444443,3088.427777777778zM4098,3061 4106,3061 4106.311111111111,3060.95 4106.5888888888885,3060.811111111111 4106.811111111111,3060.588888888889 4106.95,3060.311111111111 4107,3060 4107,3052 4106.95,3051.688888888889 4106.811111111111,3051.411111111111 4106.5888888888885,3051.188888888889 4106.311111111111,3051.05 4106,3051 4098,3051 4097.688888888889,3051.05 4097.4111111111115,3051.188888888889 4097.188888888889,3051.411111111111 4097.05,3051.688888888889 4097,3052 4096.95,3051.688888888889 4096.811111111111,3051.411111111111 4096.5888888888885,3051.188888888889 4096.311111111111,3051.05 4096,3051 4088,3051 4087.688888888889,3051.05 4087.411111111111,3051.188888888889 4087.188888888889,3051.411111111111 4087.05,3051.688888888889 4087,3052 4086.95,3051.688888888889 4086.811111111111,3051.411111111111 4086.588888888889,3051.188888888889 4086.311111111111,3051.05 4086,3051 4078,3051 4077.688888888889,3051.05 4077.411111111111,3051.188888888889 4077.188888888889,3051.411111111111 4077.05,3051.688888888889 4077,3052 4076.95,3051.688888888889 4076.811111111111,3051.411111111111 4076.588888888889,3051.188888888889 4076.311111111111,3051.05 4076,3051 4068,3051 4067.688888888889,3051.05 4067.411111111111,3051.188888888889 4067.188888888889,3051.411111111111 4067.05,3051.688888888889 4067,3052 4067,3060 4067.05,3060.311111111111 4067.188888888889,3060.588888888889 4067.411111111111,3060.811111111111 4067.688888888889,3060.95 4068,3061 4068.027777777778,3061 4067.972222222222,3061.1 4067.8333333333335,3061.538888888889 4067.7833333333333,3062 4067.8333333333335,3062.461111111111 4067.972222222222,3062.9 4068.2055555555557,3063.3055555555557 4068.5,3063.633333333333 4068.5,3104.366666666667 4068.2055555555557,3104.6944444444443 4067.972222222222,3105.1 4067.8333333333335,3105.538888888889 4067.7833333333333,3106 4067.8333333333335,3106.461111111111 4067.972222222222,3106.9 4068.2055555555557,3107.3055555555557 4068.516666666667,3107.65 4068.8888888888887,3107.9222222222224 4069.3166666666666,3108.1055555555554 4069.766666666667,3108.2055555555557 4070.233333333333,3108.2055555555557 4070.6833333333334,3108.1055555555554 4071.1111111111113,3107.9222222222224 4071.483333333333,3107.65 4071.7944444444443,3107.3055555555557 4072.027777777778,3106.9 4072.1666666666665,3106.461111111111 4072.2166666666667,3106 4072.1666666666665,3105.538888888889 4072.027777777778,3105.1 4071.7944444444443,3104.6944444444443 4071.5,3104.366666666667 4071.5,3063.633333333333 4071.7944444444443,3063.3055555555557 4072.027777777778,3062.9 4072.1666666666665,3062.461111111111 4072.2166666666667,3062 4072.1666666666665,3061.538888888889 4072.027777777778,3061.1 4071.972222222222,3061 4076,3061 4076.311111111111,3060.95 4076.588888888889,3060.811111111111 4076.811111111111,3060.588888888889 4076.95,3060.311111111111 4077,3060 4077.05,3060.311111111111 4077.188888888889,3060.588888888889 4077.411111111111,3060.811111111111 4077.688888888889,3060.95 4078,3061 4086,3061 4086.311111111111,3060.95 4086.588888888889,3060.811111111111 4086.811111111111,3060.588888888889 4086.95,3060.311111111111 4087,3060 4087.05,3060.311111111111 4087.188888888889,3060.588888888889 4087.411111111111,3060.811111111111 4087.688888888889,3060.95 4088,3061 4096,3061 4096.311111111111,3060.95 4096.5888888888885,3060.811111111111 4096.811111111111,3060.588888888889 4096.95,3060.311111111111 4097,3060 4097.05,3060.311111111111 4097.188888888889,3060.588888888889 4097.4111111111115,3060.811111111111 4097.688888888889,3060.95zM4118,3061 4126,3061 4126.311111111111,3060.95 4126.5888888888885,3060.811111111111 4126.811111111111,3060.588888888889 4126.95,3060.311111111111 4127,3060 4127,3052 4126.95,3051.688888888889 4126.811111111111,3051.411111111111 4126.5888888888885,3051.188888888889 4126.311111111111,3051.05 4126,3051 4118,3051 4117.688888888889,3051.05 4117.4111111111115,3051.188888888889 4117.188888888889,3051.411111111111 4117.05,3051.688888888889 4117,3052 4117,3060 4117.05,3060.311111111111 4117.188888888889,3060.588888888889 4117.4111111111115,3060.811111111111 4117.688888888889,3060.95zM4146.6611111111115,3064.988888888889 4147.3388888888885,3064.988888888889 4148.016666666666,3064.8944444444446 4148.672222222222,3064.711111111111 4149.3,3064.438888888889 4149.883333333333,3064.0833333333335 4150.4111111111115,3063.6555555555556 4150.877777777778,3063.1555555555556 4151.272222222222,3062.6 4151.583333333333,3061.9944444444445 4151.816666666667,3061.35 4151.955555555555,3060.6833333333334 4152,3060 4151.955555555555,3059.3166666666666 4151.816666666667,3058.65 4151.583333333333,3058.0055555555555 4151.272222222222,3057.4 4150.877777777778,3056.8444444444444 4150.4111111111115,3056.3444444444444 4149.883333333333,3055.9166666666665 4149.3,3055.561111111111 4148.672222222222,3055.288888888889 4148.016666666666,3055.1055555555554 4147.3388888888885,3055.011111111111 4146.6611111111115,3055.011111111111 4145.983333333334,3055.1055555555554 4145.327777777778,3055.288888888889 4144.7,3055.561111111111 4144.116666666667,3055.9166666666665 4143.5888888888885,3056.3444444444444 4143.122222222222,3056.8444444444444 4142.727777777778,3057.4 4142.416666666667,3058.0055555555555 4142.183333333333,3058.65 4142.044444444445,3059.3166666666666 4142,3060 4142.044444444445,3060.6833333333334 4142.183333333333,3061.35 4142.416666666667,3061.9944444444445 4142.727777777778,3062.6 4143.122222222222,3063.1555555555556 4143.5888888888885,3063.6555555555556 4144.116666666667,3064.0833333333335 4144.7,3064.438888888889 4145.327777777778,3064.711111111111 4145.983333333334,3064.8944444444446zM4059.661111111111,3064.988888888889 4060.338888888889,3064.988888888889 4061.016666666667,3064.8944444444446 4061.6722222222224,3064.711111111111 4062.3,3064.438888888889 4062.883333333333,3064.0833333333335 4063.411111111111,3063.6555555555556 4063.8777777777777,3063.1555555555556 4064.2722222222224,3062.6 4064.5833333333335,3061.9944444444445 4064.8166666666666,3061.35 4064.9555555555557,3060.6833333333334 4065,3060 4064.9555555555557,3059.3166666666666 4064.8166666666666,3058.65 4064.5833333333335,3058.0055555555555 4064.2722222222224,3057.4 4063.8777777777777,3056.8444444444444 4063.411111111111,3056.3444444444444 4062.883333333333,3055.9166666666665 4062.3,3055.561111111111 4061.6722222222224,3055.288888888889 4061.016666666667,3055.1055555555554 4060.338888888889,3055.011111111111 4059.661111111111,3055.011111111111 4058.983333333333,3055.1055555555554 4058.3277777777776,3055.288888888889 4057.7,3055.561111111111 4057.116666666667,3055.9166666666665 4056.588888888889,3056.3444444444444 4056.1222222222223,3056.8444444444444 4055.7277777777776,3057.4 4055.4166666666665,3058.0055555555555 4055.1833333333334,3058.65 4055.0444444444443,3059.3166666666666 4055,3060 4055.0444444444443,3060.6833333333334 4055.1833333333334,3061.35 4055.4166666666665,3061.9944444444445 4055.7277777777776,3062.6 4056.1222222222223,3063.1555555555556 4056.588888888889,3063.6555555555556 4057.116666666667,3064.0833333333335 4057.7,3064.438888888889 4058.3277777777776,3064.711111111111 4058.983333333333,3064.8944444444446zM4094.4444444444443,3089.6666666666665 4100.35,3089.6666666666665 4100.6611111111115,3089.616666666667 4100.938888888889,3089.4777777777776 4101.1611111111115,3089.2555555555555 4101.3,3088.9777777777776 4101.35,3088.6666666666665 4101.35,3087.5 4104.383333333333,3087.5 4104.516666666666,3087.65 4104.888888888889,3087.9222222222224 4105.316666666667,3088.1055555555554 4105.766666666666,3088.2055555555557 4106.233333333334,3088.2055555555557 4106.683333333333,3088.1055555555554 4107.111111111111,3087.9222222222224 4107.483333333334,3087.65 4107.794444444445,3087.3055555555557 4108.027777777777,3086.9 4108.166666666667,3086.461111111111 4108.216666666666,3086 4108.166666666667,3085.538888888889 4108.027777777777,3085.1 4107.794444444445,3084.6944444444443 4107.483333333334,3084.35 4107.111111111111,3084.0777777777776 4106.683333333333,3083.8944444444446 4106.233333333334,3083.7944444444443 4105.766666666666,3083.7944444444443 4105.316666666667,3083.8944444444446 4104.888888888889,3084.0777777777776 4104.516666666666,3084.35 4104.383333333333,3084.5 4101.311111111111,3084.5 4101.3,3084.4166666666665 4101.1611111111115,3084.1388888888887 4100.938888888889,3083.9166666666665 4100.6611111111115,3083.777777777778 4100.35,3083.7277777777776 4094.4444444444443,3083.7277777777776 4094.133333333333,3083.777777777778 4093.8555555555554,3083.9166666666665 4093.633333333333,3084.1388888888887 4093.4944444444445,3084.4166666666665 4093.4444444444443,3084.7277777777776 4093.4444444444443,3088.6666666666665 4093.4944444444445,3088.9777777777776 4093.633333333333,3089.2555555555555 4093.8555555555554,3089.4777777777776 4094.133333333333,3089.616666666667z"
       stroke-width="0"
       layerid="2"
       id="path26" />
    <g
       c_partid="part_via"
       c_etype="pinpart"
       c_shapetype="group"
       c_origin="4131,3065"
       layerid="2"
       id="g28">
      <circle
         cx="4131"
         cy="3065"
         r="1.22"
         stroke-width="0"
         id="circle30" />
      <circle
         cx="4131"
         cy="3065"
         r="0.6"
         stroke-width="0"
         id="circle32" />
    </g>
    <g
       c_partid="part_via"
       c_etype="pinpart"
       c_shapetype="group"
       c_origin="4074,3065"
       layerid="2"
       id="g34">
      <circle
         cx="4074"
         cy="3065"
         r="1.22"
         stroke-width="0"
         id="circle36" />
      <circle
         cx="4074"
         cy="3065"
         r="0.6"
         stroke-width="0"
         id="circle38" />
    </g>
    <g
       c_partid="part_via"
       c_etype="pinpart"
       c_shapetype="group"
       c_origin="4117,3093"
       layerid="2"
       id="g40">
      <circle
         cx="4117"
         cy="3093"
         r="1.22"
         stroke-width="0"
         id="circle42" />
      <circle
         cx="4117"
         cy="3093"
         r="0.6"
         stroke-width="0"
         id="circle44" />
    </g>
    <g
       c_partid="part_via"
       c_etype="pinpart"
       c_shapetype="group"
       c_origin="4097,3093"
       layerid="2"
       id="g46">
      <circle
         cx="4097"
         cy="3093"
         r="1.22"
         stroke-width="0"
         id="circle48" />
      <circle
         cx="4097"
         cy="3093"
         r="0.6"
         stroke-width="0"
         id="circle50" />
    </g>
    <g
       c_partid="part_via"
       c_etype="pinpart"
       c_shapetype="group"
       c_origin="4106,3086"
       layerid="2"
       id="g52">
      <circle
         cx="4106"
         cy="3086"
         r="1.22"
         stroke-width="0"
         id="circle54" />
      <circle
         cx="4106"
         cy="3086"
         r="0.6"
         stroke-width="0"
         id="circle56" />
    </g>
    <g
       c_partid="part_via"
       c_etype="pinpart"
       c_shapetype="group"
       c_origin="4070,3106"
       layerid="2"
       id="g58">
      <circle
         cx="4070"
         cy="3106"
         r="1.22"
         stroke-width="0"
         id="circle60" />
      <circle
         cx="4070"
         cy="3106"
         r="0.6"
         stroke-width="0"
         id="circle62" />
    </g>
    <g
       c_partid="part_via"
       c_etype="pinpart"
       c_shapetype="group"
       c_origin="4070,3062"
       layerid="2"
       id="g64">
      <circle
         cx="4070"
         cy="3062"
         r="1.22"
         stroke-width="0"
         id="circle66" />
      <circle
         cx="4070"
         cy="3062"
         r="0.6"
         stroke-width="0"
         id="circle68" />
    </g>
    <g
       c_partid="part_via"
       c_etype="pinpart"
       c_shapetype="group"
       c_origin="4090,3115"
       layerid="2"
       id="g70">
      <circle
         cx="4090"
         cy="3115"
         r="1.22"
         stroke-width="0"
         id="circle72" />
      <circle
         cx="4090"
         cy="3115"
         r="0.6"
         stroke-width="0"
         id="circle74" />
    </g>
    <g
       c_partid="part_via"
       c_etype="pinpart"
       c_shapetype="group"
       c_origin="4079,3093"
       layerid="2"
       id="g76">
      <circle
         cx="4079"
         cy="3093"
         r="1.22"
         stroke-width="0"
         id="circle78" />
      <circle
         cx="4079"
         cy="3093"
         r="0.6"
         stroke-width="0"
         id="circle80" />
    </g>
    <g
       c_partid="part_via"
       c_etype="pinpart"
       c_shapetype="group"
       c_origin="4054,3095"
       layerid="2"
       id="g82">
      <circle
         cx="4054"
         cy="3095"
         r="1.22"
         stroke-width="0"
         id="circle84" />
      <circle
         cx="4054"
         cy="3095"
         r="0.6"
         stroke-width="0"
         id="circle86" />
    </g>
    <g
       c_partid="part_via"
       c_etype="pinpart"
       c_shapetype="group"
       c_origin="4127,3102"
       layerid="2"
       id="g88">
      <circle
         cx="4127"
         cy="3102"
         r="1.22"
         stroke-width="0"
         id="circle90" />
      <circle
         cx="4127"
         cy="3102"
         r="0.6"
         stroke-width="0"
         id="circle92" />
    </g>
    <g
       c_partid="part_via"
       c_etype="pinpart"
       c_shapetype="group"
       c_origin="4060,3130"
       layerid="2"
       id="g94">
      <circle
         cx="4060"
         cy="3130"
         r="4"
         stroke-width="0"
         id="circle96" />
      <circle
         cx="4060"
         cy="3130"
         r="4"
         stroke-width="0"
         id="circle98" />
    </g>
    <g
       c_partid="part_via"
       c_etype="pinpart"
       c_shapetype="group"
       c_origin="4147,3060"
       layerid="2"
       id="g100">
      <circle
         cx="4147"
         cy="3060"
         r="4"
         stroke-width="0"
         id="circle102" />
      <circle
         cx="4147"
         cy="3060"
         r="4"
         stroke-width="0"
         id="circle104" />
    </g>
    <g
       c_partid="part_via"
       c_etype="pinpart"
       c_shapetype="group"
       c_origin="4060,3060"
       layerid="2"
       id="g106">
      <circle
         cx="4060"
         cy="3060"
         r="4"
         stroke-width="0"
         id="circle108" />
      <circle
         cx="4060"
         cy="3060"
         r="4"
         stroke-width="0"
         id="circle110" />
    </g>
    <g
       c_partid="part_via"
       c_etype="pinpart"
       c_shapetype="group"
       c_origin="4147,3130"
       layerid="2"
       id="g112">
      <circle
         cx="4147"
         cy="3130"
         r="4"
         stroke-width="0"
         id="circle114" />
      <circle
         cx="4147"
         cy="3130"
         r="4"
         stroke-width="0"
         id="circle116" />
    </g>
    <g
       c_partid="part_pad"
       c_etype="pinpart"
       c_origin="4112,3056"
       layerid="8"
       plated="Y"
       c_rotation="0"
       c_width="7.874"
       c_height="7.874"
       c_shape="RECT"
       id="g118">
      <polygon
         points="4108.063 3052.063 4115.937 3052.063 4115.937 3059.937 4108.063 3059.937"
         stroke-width="0"
         id="polygon120" />
      <circle
         cx="4112"
         cy="3056"
         r="1.77165"
         stroke-width="0"
         id="circle122" />
    </g>
    <g
       c_partid="part_pad"
       c_etype="pinpart"
       c_origin="4102,3056"
       layerid="8"
       plated="Y"
       c_rotation="0"
       c_width="7.874"
       c_height="7.874"
       c_shape="RECT"
       id="g124">
      <polygon
         points="4098.063 3052.063 4105.937 3052.063 4105.937 3059.937 4098.063 3059.937"
         stroke-width="0"
         id="polygon126" />
      <circle
         cx="4102"
         cy="3056"
         r="1.77165"
         stroke-width="0"
         id="circle128" />
    </g>
    <g
       c_partid="part_pad"
       c_etype="pinpart"
       c_origin="4122,3056"
       layerid="8"
       plated="Y"
       c_rotation="0"
       c_width="7.874"
       c_height="7.874"
       c_shape="RECT"
       id="g130">
      <polygon
         points="4118.063 3052.063 4125.937 3052.063 4125.937 3059.937 4118.063 3059.937"
         stroke-width="0"
         id="polygon132" />
      <circle
         cx="4122"
         cy="3056"
         r="1.77165"
         stroke-width="0"
         id="circle134" />
    </g>
    <g
       c_partid="part_pad"
       c_etype="pinpart"
       c_origin="4072,3056"
       layerid="8"
       plated="Y"
       c_rotation="0"
       c_width="7.874"
       c_height="7.874"
       c_shape="RECT"
       id="g136">
      <polygon
         points="4068.063 3052.063 4075.937 3052.063 4075.937 3059.937 4068.063 3059.937"
         stroke-width="0"
         id="polygon138" />
      <circle
         cx="4072"
         cy="3056"
         r="1.77165"
         stroke-width="0"
         id="circle140" />
    </g>
    <g
       c_partid="part_pad"
       c_etype="pinpart"
       c_origin="4124.003,3132.002"
       layerid="8"
       plated="Y"
       c_rotation="0"
       c_width="11.811"
       c_height="11.811"
       c_shape="RECT"
       id="g142">
      <polygon
         points="4118.095 3126.095 4129.91 3126.095 4129.91 3137.91 4118.095 3137.91"
         stroke-width="0"
         id="polygon144" />
      <circle
         cx="4124.003"
         cy="3132.002"
         r="1.9685"
         stroke-width="0"
         id="circle146" />
    </g>
    <g
       c_partid="part_pad"
       c_etype="pinpart"
       c_origin="4092,3056"
       layerid="8"
       plated="Y"
       c_rotation="0"
       c_width="7.874"
       c_height="7.874"
       c_shape="RECT"
       id="g148">
      <polygon
         points="4088.063 3052.063 4095.937 3052.063 4095.937 3059.937 4088.063 3059.937"
         stroke-width="0"
         id="polygon150" />
      <circle
         cx="4092"
         cy="3056"
         r="1.77165"
         stroke-width="0"
         id="circle152" />
    </g>
    <g
       c_partid="part_pad"
       c_etype="pinpart"
       c_origin="4082,3056"
       layerid="8"
       plated="Y"
       c_rotation="0"
       c_width="7.874"
       c_height="7.874"
       c_shape="RECT"
       id="g154">
      <polygon
         points="4078.063 3052.063 4085.937 3052.063 4085.937 3059.937 4078.063 3059.937"
         stroke-width="0"
         id="polygon156" />
      <circle
         cx="4082"
         cy="3056"
         r="1.77165"
         stroke-width="0"
         id="circle158" />
    </g>
    <g
       c_partid="part_pad"
       c_etype="pinpart"
       c_origin="4108.003,3132.002"
       layerid="8"
       plated="Y"
       c_rotation="0"
       c_width="11.811"
       c_height="11.811"
       c_shape="RECT"
       id="g160">
      <polygon
         points="4102.095 3126.095 4113.91 3126.095 4113.91 3137.91 4102.095 3137.91"
         stroke-width="0"
         id="polygon162" />
      <circle
         cx="4108.003"
         cy="3132.002"
         r="1.9685"
         stroke-width="0"
         id="circle164" />
    </g>
    <g
       c_partid="part_pad"
       c_etype="pinpart"
       c_origin="4083.21,3085.52"
       layerid="8"
       plated="Y"
       c_rotation="0"
       c_width="7.0866"
       c_height="3.937"
       c_shape="RECT"
       id="g166">
      <polygon
         points="4086.75 3083.549 4079.664 3083.549 4079.664 3087.486 4086.75 3087.486"
         stroke-width="0"
         id="polygon168" />
      <circle
         cx="4083.21"
         cy="3085.52"
         r="0.001"
         stroke-width="0"
         id="circle170" />
    </g>
    <g
       c_partid="part_pad"
       c_etype="pinpart"
       c_origin="4058.8,3085.51"
       layerid="8"
       plated="Y"
       c_rotation="0"
       c_width="7.0866"
       c_height="3.937"
       c_shape="RECT"
       id="g172">
      <polygon
         points="4062.346 3083.542 4055.259 3083.542 4055.259 3087.479 4062.346 3087.479"
         stroke-width="0"
         id="polygon174" />
      <circle
         cx="4058.8"
         cy="3085.51"
         r="0.001"
         stroke-width="0"
         id="circle176" />
    </g>
    <g
       c_partid="part_pad"
       c_etype="pinpart"
       c_origin="4083.22,3100.47"
       layerid="8"
       plated="Y"
       c_rotation="0"
       c_width="7.0866"
       c_height="3.937"
       c_shape="RECT"
       id="g178">
      <polygon
         points="4086.761 3098.5 4079.676 3098.5 4079.676 3102.437 4086.761 3102.437"
         stroke-width="0"
         id="polygon180" />
      <circle
         cx="4083.22"
         cy="3100.47"
         r="0.001"
         stroke-width="0"
         id="circle182" />
    </g>
    <g
       c_partid="part_pad"
       c_etype="pinpart"
       c_origin="4058.81,3100.47"
       layerid="8"
       plated="Y"
       c_rotation="0"
       c_width="7.0866"
       c_height="3.937"
       c_shape="RECT"
       id="g184">
      <polygon
         points="4062.352 3098.5 4055.265 3098.5 4055.265 3102.437 4062.352 3102.437"
         stroke-width="0"
         id="polygon186" />
      <circle
         cx="4058.81"
         cy="3100.47"
         r="0.001"
         stroke-width="0"
         id="circle188" />
    </g>
    <g
       c_partid="part_pad"
       c_etype="pinpart"
       c_origin="4116.6,3086.7"
       layerid="8"
       plated="Y"
       c_rotation="0"
       c_width="5.91"
       c_height="3.94"
       c_shape="RECT"
       id="g190">
      <polygon
         points="4119.555 3084.73 4113.645 3084.73 4113.645 3088.67 4119.555 3088.67"
         stroke-width="0"
         id="polygon192" />
      <circle
         cx="4116.6"
         cy="3086.7"
         r="0.001"
         stroke-width="0"
         id="circle194" />
    </g>
    <g
       c_partid="part_pad"
       c_etype="pinpart"
       c_origin="4097.4,3086.7"
       layerid="8"
       plated="Y"
       c_rotation="0"
       c_width="5.91"
       c_height="3.94"
       c_shape="RECT"
       id="g196">
      <polygon
         points="4100.355 3084.73 4094.445 3084.73 4094.445 3088.67 4100.355 3088.67"
         stroke-width="0"
         id="polygon198" />
      <circle
         cx="4097.4"
         cy="3086.7"
         r="0.001"
         stroke-width="0"
         id="circle200" />
    </g>
    <g
       c_partid="part_pad"
       c_etype="pinpart"
       c_origin="4097.4,3099.3"
       layerid="8"
       plated="Y"
       c_rotation="0"
       c_width="5.91"
       c_height="3.94"
       c_shape="RECT"
       id="g202">
      <polygon
         points="4100.355 3097.33 4094.445 3097.33 4094.445 3101.27 4100.355 3101.27"
         stroke-width="0"
         id="polygon204" />
      <circle
         cx="4097.4"
         cy="3099.3"
         r="0.001"
         stroke-width="0"
         id="circle206" />
    </g>
    <g
       c_partid="part_pad"
       c_etype="pinpart"
       c_origin="4116.6,3099.3"
       layerid="8"
       plated="Y"
       c_rotation="0"
       c_width="5.91"
       c_height="3.94"
       c_shape="RECT"
       id="g208">
      <polygon
         points="4119.555 3097.33 4113.645 3097.33 4113.645 3101.27 4119.555 3101.27"
         stroke-width="0"
         id="polygon210" />
      <circle
         cx="4116.6"
         cy="3099.3"
         r="0.001"
         stroke-width="0"
         id="circle212" />
    </g>
    <polyline
       points="4061.15 3089.06 4060.76 3089.06 4060.77 3097.33 4063.52 3097.33 4066.67 3100.48 4066.67 3103.24 4075.33 3103.24 4075.33 3100.48 4078.88 3096.94 4081.24 3096.94 4081.23 3089.06 4078.87 3089.06 4075.33 3085.52 4075.331 3082.764 4066.669 3082.764 4066.67 3085.52 4063.13 3089.06 4061.15 3089.06"
       stroke-width="1"
       c_shapetype="line"
       stroke-linecap="round"
       fill="none"
       layerid="4"
       id="polyline214" />
    <polyline
       points="4058.39 3084.74 4058.39 3086.31 4066.66 3086.31 4066.66 3084.74 4058.39 3084.74 4059.182 3085.53"
       stroke-width="1"
       c_shapetype="line"
       stroke-linecap="round"
       fill="none"
       layerid="4"
       id="polyline216" />
    <polyline
       points="4058.409 3099.69 4058.409 3101.259 4065.27 3101.26 4066.679 3101.259 4066.679 3099.69 4058.409 3099.69 4059.201 3100.48"
       stroke-width="1"
       c_shapetype="line"
       stroke-linecap="round"
       fill="none"
       layerid="4"
       id="polyline218" />
    <polyline
       points="4083.599 3101.261 4083.599 3099.691 4078.32 3099.69 4075.328 3099.691 4075.328 3101.261 4083.599 3101.261 4082.806 3100.471"
       stroke-width="1"
       c_shapetype="line"
       stroke-linecap="round"
       fill="none"
       layerid="4"
       id="polyline220" />
    <polyline
       points="4083.602 3086.303 4083.602 3084.733 4078.37 3084.73 4075.332 3084.733 4075.332 3086.303 4083.602 3086.303 4082.808 3085.513"
       stroke-width="1"
       c_shapetype="line"
       stroke-linecap="round"
       fill="none"
       layerid="4"
       id="polyline222" />
    <polyline
       points="4120.2 3082.2 4120.2 3103.8"
       stroke-width="1"
       c_shapetype="line"
       stroke-linecap="round"
       fill="none"
       layerid="4"
       id="polyline224" />
    <polyline
       points="4120.2 3103.8 4093.8 3103.8"
       stroke-width="1"
       c_shapetype="line"
       stroke-linecap="round"
       fill="none"
       layerid="4"
       id="polyline226" />
    <polyline
       points="4093.8 3103.8 4093.8 3082.2"
       stroke-width="1"
       c_shapetype="line"
       stroke-linecap="round"
       fill="none"
       layerid="4"
       id="polyline228" />
    <polyline
       points="4093.8 3082.2 4120.2 3082.2"
       stroke-width="1"
       c_shapetype="line"
       stroke-linecap="round"
       fill="none"
       layerid="4"
       id="polyline230" />
    <g
       c_partid="part_pcbtext"
       c_origin="4112.36,3074.22"
       c_rotation="180"
       c_mirror="1"
       layerid="4"
       c_shapetype="group"
       id="g232">
      <path
         c_fontSize="5.9055"
         c_fontFamily=""
         c_text="KrystaLED"
         d="M 4112.36 3071 L 4112.36 3076.64 M 4108.6 3071 L 4112.36 3074.76 M 4111.02 3073.41 L 4108.6 3076.64 M 4106.83 3072.88 L 4106.83 3076.64 M 4106.83 3074.49 L 4106.56 3073.68 L 4106.03 3073.15 L 4105.49 3072.88 L 4104.68 3072.88 M 4102.64 3072.88 L 4101.03 3076.64 M 4099.42 3072.88 L 4101.03 3076.64 L 4101.57 3077.71 L 4102.11 3078.25 L 4102.64 3078.51 L 4102.91 3078.51 M 4094.7 3073.68 L 4094.97 3073.15 L 4095.77 3072.88 L 4096.58 3072.88 L 4097.38 3073.15 L 4097.65 3073.68 L 4097.38 3074.22 L 4096.84 3074.49 L 4095.5 3074.76 L 4094.97 3075.03 L 4094.7 3075.56 L 4094.7 3075.83 L 4094.97 3076.37 L 4095.77 3076.64 L 4096.58 3076.64 L 4097.38 3076.37 L 4097.65 3075.83 M 4092.12 3071 L 4092.12 3075.56 L 4091.85 3076.37 L 4091.31 3076.64 L 4090.78 3076.64 M 4092.93 3072.88 L 4091.05 3072.88 M 4085.79 3072.88 L 4085.79 3076.64 M 4085.79 3073.68 L 4086.32 3073.15 L 4086.86 3072.88 L 4087.66 3072.88 L 4088.2 3073.15 L 4088.74 3073.68 L 4089.01 3074.49 L 4089.01 3075.03 L 4088.74 3075.83 L 4088.2 3076.37 L 4087.66 3076.64 L 4086.86 3076.64 L 4086.32 3076.37 L 4085.79 3075.83 M 4084.01 3071 L 4084.01 3076.64 M 4084.01 3076.64 L 4080.79 3076.64 M 4079.02 3071 L 4079.02 3076.64 M 4079.02 3071 L 4075.53 3071 M 4079.02 3073.68 L 4076.87 3073.68 M 4079.02 3076.64 L 4075.53 3076.64 M 4073.76 3071 L 4073.76 3076.64 M 4073.76 3071 L 4071.88 3071 L 4071.08 3071.27 L 4070.54 3071.8 L 4070.27 3072.34 L 4070 3073.15 L 4070 3074.49 L 4070.27 3075.29 L 4070.54 3075.83 L 4071.08 3076.37 L 4071.88 3076.64 L 4073.76 3076.64"
         fill="none"
         stroke-width="0.8"
         id="path234" />
    </g>
    <g
       c_partid="part_pcbtext"
       c_origin="4152.73,3116.91"
       c_rotation="0"
       c_mirror="1"
       layerid="4"
       c_shapetype="group"
       id="g236">
      <path
         c_fontSize="4"
         c_fontFamily=""
         c_text="github.com/callimero/KrystaLED/"
         d="M 4150.5456 3116.0001 L 4150.5456 3118.9092 L 4150.7274 3119.4547 L 4150.9092 3119.6365 L 4151.2728 3119.8183 L 4151.8183 3119.8183 L 4152.1819 3119.6365 M 4150.5456 3116.5456 L 4150.9092 3116.1819 L 4151.2728 3116.0001 L 4151.8183 3116.0001 L 4152.1819 3116.1819 L 4152.5456 3116.5456 L 4152.7274 3117.091 L 4152.7274 3117.4547 L 4152.5456 3118.0001 L 4152.1819 3118.3638 L 4151.8183 3118.5456 L 4151.2728 3118.5456 L 4150.9092 3118.3638 L 4150.5456 3118.0001 M 4149.3456 3114.7274 L 4149.1637 3114.9092 L 4148.9819 3114.7274 L 4149.1637 3114.5456 L 4149.3456 3114.7274 M 4149.1637 3116.0001 L 4149.1637 3118.5456 M 4147.2365 3114.7274 L 4147.2365 3117.8183 L 4147.0546 3118.3638 L 4146.691 3118.5456 L 4146.3274 3118.5456 M 4147.7819 3116.0001 L 4146.5092 3116.0001 M 4145.1274 3114.7274 L 4145.1274 3118.5456 M 4145.1274 3116.7274 L 4144.5819 3116.1819 L 4144.2183 3116.0001 L 4143.6728 3116.0001 L 4143.3092 3116.1819 L 4143.1274 3116.7274 L 4143.1274 3118.5456 M 4141.9274 3116.0001 L 4141.9274 3117.8183 L 4141.7456 3118.3638 L 4141.3819 3118.5456 L 4140.8365 3118.5456 L 4140.4728 3118.3638 L 4139.9274 3117.8183 M 4139.9274 3116.0001 L 4139.9274 3118.5456 M 4138.7274 3114.7274 L 4138.7274 3118.5456 M 4138.7274 3116.5456 L 4138.3637 3116.1819 L 4138.0001 3116.0001 L 4137.4546 3116.0001 L 4137.091 3116.1819 L 4136.7274 3116.5456 L 4136.5456 3117.091 L 4136.5456 3117.4547 L 4136.7274 3118.0001 L 4137.091 3118.3638 L 4137.4546 3118.5456 L 4138.0001 3118.5456 L 4138.3637 3118.3638 L 4138.7274 3118.0001 M 4135.1637 3117.6365 L 4135.3456 3117.8183 L 4135.1637 3118.0001 L 4134.9819 3117.8183 L 4135.1637 3117.6365 M 4131.6001 3116.5456 L 4131.9637 3116.1819 L 4132.3274 3116.0001 L 4132.8728 3116.0001 L 4133.2365 3116.1819 L 4133.6001 3116.5456 L 4133.7819 3117.091 L 4133.7819 3117.4547 L 4133.6001 3118.0001 L 4133.2365 3118.3638 L 4132.8728 3118.5456 L 4132.3274 3118.5456 L 4131.9637 3118.3638 L 4131.6001 3118.0001 M 4129.491 3116.0001 L 4129.8546 3116.1819 L 4130.2183 3116.5456 L 4130.4001 3117.091 L 4130.4001 3117.4547 L 4130.2183 3118.0001 L 4129.8546 3118.3638 L 4129.491 3118.5456 L 4128.9456 3118.5456 L 4128.5819 3118.3638 L 4128.2183 3118.0001 L 4128.0365 3117.4547 L 4128.0365 3117.091 L 4128.2183 3116.5456 L 4128.5819 3116.1819 L 4128.9456 3116.0001 L 4129.491 3116.0001 M 4126.8365 3116.0001 L 4126.8365 3118.5456 M 4126.8365 3116.7274 L 4126.291 3116.1819 L 4125.9274 3116.0001 L 4125.3819 3116.0001 L 4125.0183 3116.1819 L 4124.8365 3116.7274 L 4124.8365 3118.5456 M 4124.8365 3116.7274 L 4124.291 3116.1819 L 4123.9274 3116.0001 L 4123.3819 3116.0001 L 4123.0183 3116.1819 L 4122.8365 3116.7274 L 4122.8365 3118.5456 M 4118.3637 3114.0001 L 4121.6365 3119.8183 M 4114.9819 3116.5456 L 4115.3456 3116.1819 L 4115.7092 3116.0001 L 4116.2546 3116.0001 L 4116.6183 3116.1819 L 4116.9819 3116.5456 L 4117.1637 3117.091 L 4117.1637 3117.4547 L 4116.9819 3118.0001 L 4116.6183 3118.3638 L 4116.2546 3118.5456 L 4115.7092 3118.5456 L 4115.3456 3118.3638 L 4114.9819 3118.0001 M 4111.6001 3116.0001 L 4111.6001 3118.5456 M 4111.6001 3116.5456 L 4111.9637 3116.1819 L 4112.3274 3116.0001 L 4112.8728 3116.0001 L 4113.2365 3116.1819 L 4113.6001 3116.5456 L 4113.7819 3117.091 L 4113.7819 3117.4547 L 4113.6001 3118.0001 L 4113.2365 3118.3638 L 4112.8728 3118.5456 L 4112.3274 3118.5456 L 4111.9637 3118.3638 L 4111.6001 3118.0001 M 4110.4001 3114.7274 L 4110.4001 3118.5456 M 4109.2001 3114.7274 L 4109.2001 3118.5456 M 4108.0001 3114.7274 L 4107.8183 3114.9092 L 4107.6365 3114.7274 L 4107.8183 3114.5456 L 4108.0001 3114.7274 M 4107.8183 3116.0001 L 4107.8183 3118.5456 M 4106.4365 3116.0001 L 4106.4365 3118.5456 M 4106.4365 3116.7274 L 4105.891 3116.1819 L 4105.5274 3116.0001 L 4104.9819 3116.0001 L 4104.6183 3116.1819 L 4104.4365 3116.7274 L 4104.4365 3118.5456 M 4104.4365 3116.7274 L 4103.891 3116.1819 L 4103.5274 3116.0001 L 4102.9819 3116.0001 L 4102.6183 3116.1819 L 4102.4365 3116.7274 L 4102.4365 3118.5456 M 4101.2365 3117.091 L 4099.0546 3117.091 L 4099.0546 3116.7274 L 4099.2365 3116.3638 L 4099.4183 3116.1819 L 4099.7819 3116.0001 L 4100.3274 3116.0001 L 4100.691 3116.1819 L 4101.0546 3116.5456 L 4101.2365 3117.091 L 4101.2365 3117.4547 L 4101.0546 3118.0001 L 4100.691 3118.3638 L 4100.3274 3118.5456 L 4099.7819 3118.5456 L 4099.4183 3118.3638 L 4099.0546 3118.0001 M 4097.8546 3116.0001 L 4097.8546 3118.5456 M 4097.8546 3117.091 L 4097.6728 3116.5456 L 4097.3092 3116.1819 L 4096.9456 3116.0001 L 4096.4001 3116.0001 M 4094.291 3116.0001 L 4094.6546 3116.1819 L 4095.0183 3116.5456 L 4095.2001 3117.091 L 4095.2001 3117.4547 L 4095.0183 3118.0001 L 4094.6546 3118.3638 L 4094.291 3118.5456 L 4093.7456 3118.5456 L 4093.3819 3118.3638 L 4093.0183 3118.0001 L 4092.8365 3117.4547 L 4092.8365 3117.091 L 4093.0183 3116.5456 L 4093.3819 3116.1819 L 4093.7456 3116.0001 L 4094.291 3116.0001 M 4088.3637 3114.0001 L 4091.6365 3119.8183 M 4087.1637 3114.7274 L 4087.1637 3118.5456 M 4084.6183 3114.7274 L 4087.1637 3117.2728 M 4086.2546 3116.3638 L 4084.6183 3118.5456 M 4083.4183 3116.0001 L 4083.4183 3118.5456 M 4083.4183 3117.091 L 4083.2365 3116.5456 L 4082.8728 3116.1819 L 4082.5092 3116.0001 L 4081.9637 3116.0001 M 4080.5819 3116.0001 L 4079.491 3118.5456 M 4078.4001 3116.0001 L 4079.491 3118.5456 L 4079.8546 3119.2728 L 4080.2183 3119.6365 L 4080.5819 3119.8183 L 4080.7637 3119.8183 M 4075.2001 3116.5456 L 4075.3819 3116.1819 L 4075.9274 3116.0001 L 4076.4728 3116.0001 L 4077.0183 3116.1819 L 4077.2001 3116.5456 L 4077.0183 3116.9092 L 4076.6546 3117.091 L 4075.7456 3117.2728 L 4075.3819 3117.4547 L 4075.2001 3117.8183 L 4075.2001 3118.0001 L 4075.3819 3118.3638 L 4075.9274 3118.5456 L 4076.4728 3118.5456 L 4077.0183 3118.3638 L 4077.2001 3118.0001 M 4073.4546 3114.7274 L 4073.4546 3117.8183 L 4073.2728 3118.3638 L 4072.9092 3118.5456 L 4072.5456 3118.5456 M 4074.0001 3116.0001 L 4072.7274 3116.0001 M 4069.1637 3116.0001 L 4069.1637 3118.5456 M 4069.1637 3116.5456 L 4069.5274 3116.1819 L 4069.891 3116.0001 L 4070.4365 3116.0001 L 4070.8001 3116.1819 L 4071.1637 3116.5456 L 4071.3456 3117.091 L 4071.3456 3117.4547 L 4071.1637 3118.0001 L 4070.8001 3118.3638 L 4070.4365 3118.5456 L 4069.891 3118.5456 L 4069.5274 3118.3638 L 4069.1637 3118.0001 M 4067.9637 3114.7274 L 4067.9637 3118.5456 M 4067.9637 3118.5456 L 4065.7819 3118.5456 M 4064.5819 3114.7274 L 4064.5819 3118.5456 M 4064.5819 3114.7274 L 4062.2183 3114.7274 M 4064.5819 3116.5456 L 4063.1274 3116.5456 M 4064.5819 3118.5456 L 4062.2183 3118.5456 M 4061.0183 3114.7274 L 4061.0183 3118.5456 M 4061.0183 3114.7274 L 4059.7456 3114.7274 L 4059.2001 3114.9092 L 4058.8365 3115.2728 L 4058.6546 3115.6365 L 4058.4728 3116.1819 L 4058.4728 3117.091 L 4058.6546 3117.6365 L 4058.8365 3118.0001 L 4059.2001 3118.3638 L 4059.7456 3118.5456 L 4061.0183 3118.5456 M 4054.0001 3114.0001 L 4057.2728 3119.8183"
         fill="none"
         stroke-width="0.8"
         id="path238" />
    </g>
    <g
       c_partid="part_pcbtext"
       c_origin="4073.23,3107.45"
       c_rotation="0"
       c_mirror=""
       layerid="4"
       c_shapetype="group"
       id="g240">
      <path
         c_fontSize="4.5"
         c_fontFamily=""
         c_text="K1"
         d="M 4073.2401 3104.9999 L 4073.2401 3109.2899 M 4070.3701 3104.9999 L 4073.2401 3107.8599 M 4072.2101 3106.8399 L 4070.3701 3109.2899 M 4069.0201 3105.8199 L 4068.6101 3105.6099 L 4068.0001 3104.9999 L 4068.0001 3109.2899"
         fill="none"
         stroke-width="0.7"
         c_note="note_pre"
         id="path242" />
    </g>
    <g
       c_partid="part_pcbtext"
       c_origin="4109.24,3108.45"
       c_rotation="0"
       c_mirror=""
       layerid="4"
       c_shapetype="group"
       id="g244">
      <path
         c_fontSize="4.5"
         c_fontFamily=""
         c_text="D1"
         d="M 4109.2399 3106 L 4109.2399 3110.29 M 4109.2399 3106 L 4107.8099 3106 L 4107.1899 3106.2 L 4106.7899 3106.61 L 4106.5799 3107.02 L 4106.3799 3107.63 L 4106.3799 3108.65 L 4106.5799 3109.27 L 4106.7899 3109.68 L 4107.1899 3110.09 L 4107.8099 3110.29 L 4109.2399 3110.29 M 4105.0299 3106.81 L 4104.6199 3106.61 L 4103.9999 3106 L 4103.9999 3110.29"
         fill="none"
         stroke-width="0.7"
         c_note="note_pre"
         id="path246" />
    </g>
    <circle
       cx="4071"
       cy="3093"
       r="5.91"
       stroke-width="1"
       fill="none"
       layerid="4"
       c_shapetype="line"
       id="circle248" />
    <circle
       cx="4121.8"
       cy="3086.9"
       r="1"
       stroke-width="1"
       fill="none"
       layerid="4"
       c_shapetype="line"
       id="circle250" />
    <g
       layerid="4"
       c_partid="part_svg"
       c_shapetype="group"
       layer_front="1"
       layer_show="1"
       id="g252">
      <path
         d="M 4137.64 3063.78 C 4137.14 3064.68 4135.44 3072.78 4135.44 3073.08 C 4135.44 3073.08 4135.74 3073.08 4135.94 3073.08 L 4136.74 3073.08 L 4137.84 3068.68 C 4138.64 3065.98 4139.04 3063.88 4139.04 3063.78 C 4138.84 3063.58 4137.64 3063.58 4137.64 3063.78 M 4124.74 3065.98 C 4124.54 3066.08 4124.14 3066.08 4124.14 3066.08 C 4124.14 3066.08 4125.44 3067.98 4127.04 3069.98 C 4130.24 3073.68 4130.44 3073.88 4131.44 3073.28 C 4131.54 3073.08 4129.84 3071.08 4125.84 3066.08 C 4125.44 3065.78 4125.34 3065.78 4124.74 3065.98 M 4145.14 3070.38 C 4140.34 3074.38 4140.14 3074.58 4140.54 3074.78 C 4141.54 3075.28 4141.14 3075.48 4145.14 3072.18 C 4146.84 3070.58 4149.34 3068.88 4150.04 3068.18 L 4151.84 3067.08 L 4150.84 3066.68 L 4150.24 3066.48 L 4145.14 3070.38 M 4139.74 3070.38 C 4138.84 3071.68 4137.84 3072.78 4137.84 3072.78 C 4138.84 3073.68 4139.64 3073.28 4141.14 3070.88 C 4142.64 3068.68 4143.04 3068.38 4142.04 3068.18 C 4141.64 3067.98 4141.14 3068.38 4139.74 3070.38 M 4131.74 3068.68 L 4131.44 3068.88 L 4131.44 3070.18 C 4131.54 3072.18 4131.74 3072.38 4132.34 3072.18 C 4132.34 3072.18 4132.74 3072.18 4132.94 3072.18 C 4133.14 3072.18 4133.14 3071.98 4133.14 3070.38 C 4132.94 3068.68 4132.94 3068.68 4131.74 3068.68 M 4116.54 3069.28 L 4116.14 3069.78 L 4121.84 3073.48 C 4127.34 3076.98 4128.54 3077.68 4128.34 3076.38 C 4128.34 3075.48 4117.44 3069.08 4116.54 3069.28 M 4148.34 3073.68 C 4144.14 3075.48 4144.14 3075.48 4144.34 3075.88 L 4144.74 3076.38 L 4148.74 3074.78 C 4154.24 3072.58 4153.94 3072.78 4153.34 3072.38 C 4152.94 3071.68 4152.94 3071.68 4148.34 3073.68 M 4133.54 3073.88 C 4132.74 3074.18 4132.34 3074.78 4129.44 3080.08 L 4126.64 3085.78 L 4125.84 3095.68 C 4124.94 3107.38 4124.74 3106.28 4127.04 3107.28 L 4128.94 3107.58 L 4131.94 3107.38 C 4135.04 3107.08 4140.54 3105.08 4140.94 3104.08 C 4141.14 3104.08 4141.54 3099.48 4141.54 3093.88 C 4141.64 3088.38 4141.84 3082.28 4142.04 3080.98 L 4142.04 3078.08 L 4138.04 3075.88 C 4134.04 3073.68 4134.04 3073.68 4133.54 3073.88 M 4137.84 3077.18 C 4139.04 3077.88 4140.14 3078.58 4140.14 3078.58 C 4140.14 3078.98 4137.64 3082.48 4137.54 3082.28 C 4137.54 3082.08 4136.74 3080.48 4136.14 3078.78 C 4135.54 3077.18 4135.04 3075.68 4135.04 3075.88 C 4135.44 3075.88 4136.54 3076.58 4137.84 3077.18 M 4147.74 3076.08 C 4147.64 3076.38 4146.24 3076.58 4145.34 3076.78 C 4143.74 3077.18 4142.64 3078.28 4144.14 3078.28 C 4144.74 3078.08 4148.54 3077.18 4148.74 3076.98 C 4149.34 3076.78 4148.34 3076.08 4147.74 3076.08 M 4122.64 3076.58 C 4122.04 3076.98 4122.44 3077.18 4124.94 3078.28 L 4127.54 3079.38 L 4127.74 3078.98 C 4128.54 3078.28 4123.34 3075.88 4122.64 3076.58 M 4114.04 3077.48 C 4113.64 3078.28 4125.84 3082.08 4126.24 3081.18 C 4126.64 3080.78 4126.84 3080.78 4120.14 3078.78 C 4114.44 3077.18 4114.24 3076.98 4114.04 3077.48 M 4135.44 3080.98 L 4136.54 3084.28 L 4135.44 3095.08 C 4134.64 3100.98 4133.84 3105.98 4133.64 3106.18 C 4133.14 3106.28 4129.84 3106.48 4129.84 3106.18 C 4129.84 3105.58 4133.84 3077.48 4133.84 3077.48 C 4133.84 3077.48 4134.64 3078.98 4135.44 3080.98 M 4145.84 3079.18 C 4145.84 3079.88 4145.74 3079.88 4152.14 3080.28 C 4155.94 3080.48 4155.94 3080.48 4155.94 3079.88 C 4156.14 3079.68 4155.94 3079.38 4151.84 3079.18 C 4145.84 3078.78 4145.84 3078.78 4145.84 3079.18 M 4130.24 3092.78 C 4128.14 3107.28 4128.34 3106.28 4127.34 3105.98 L 4126.64 3105.58 L 4127.34 3096.08 L 4128.14 3086.28 L 4129.84 3082.48 C 4131.04 3080.48 4131.74 3078.98 4131.94 3079.18 C 4131.94 3079.18 4131.04 3085.38 4130.24 3092.78 M 4139.94 3091.08 C 4139.74 3096.38 4139.64 3101.58 4139.64 3102.28 L 4139.24 3103.98 L 4137.64 3104.48 C 4135.44 3105.58 4135.54 3106.68 4136.94 3094.98 L 4138.04 3084.28 L 4139.24 3082.68 C 4139.74 3081.88 4140.14 3081.18 4140.34 3081.18 C 4140.34 3081.18 4140.14 3085.58 4139.94 3091.08"
         stroke="none"
         id="path254" />
    </g>
  </g>
</svg>
